# xmcd
#
# Track frame offsets: 
#        150
#        22044
#        38097
#        60789
#        73163
#        96049
#        128556
#        141909
#        157607
#        173226
#        195779
#        219410
#        239063
#
# Disc length: 3392 seconds
#
# Revision: 0
# Processed by: cddbd v1.4PL0 Copyright (c) Steve Scherf et al.
# Submitted via: ExactAudioCopy v0.95a3
#
DISCID=a60d3e0d
DTITLE=John Crampton - Live 'n' Stompin, Vol 2
DYEAR=1900
DGENRE=Blues
TTITLE0=Who's that talking
TTITLE1=12 Gates to the City
TTITLE2=Million Miles
TTITLE3=Walk with the Devil
TTITLE4=Skin 'n' Bone
TTITLE5=Raven
TTITLE6=Walls of Steel
TTITLE7=Summer Rain
TTITLE8=Jackass Stomp
TTITLE9=Perfect Lover
TTITLE10=Baby Please Don't Go
TTITLE11=Pick a Bale of Cotton
TTITLE12=Mother of Christ
EXTD=
EXTT0=
EXTT1=
EXTT2=
EXTT3=
EXTT4=
EXTT5=
EXTT6=
EXTT7=
EXTT8=
EXTT9=
EXTT10=
EXTT11=
EXTT12=
PLAYORDER=
